<?xml version="1.0" encoding="UTF-8" standalone="no"?>
<!DOCTYPE svg PUBLIC "-//W3C//DTD SVG 1.1//EN"
 "http://www.w3.org/Graphics/SVG/1.1/DTD/svg11.dtd">
<!-- Generated by graphviz version 2.36.0 (20140111.2315)
 -->
<!-- Title: Ironic Inspector states Pages: 1 -->
<svg width="838pt" height="340pt"
 viewBox="0.00 0.00 838.00 340.00" xmlns="http://www.w3.org/2000/svg" xmlns:xlink="http://www.w3.org/1999/xlink">
<g id="graph0" class="graph" transform="scale(1 1) rotate(0) translate(4 336)">
<title>Ironic Inspector states</title>
<polygon fill="white" stroke="none" points="-4,4 -4,-336 834,-336 834,4 -4,4"/>
<!-- enrolling -->
<g id="node1" class="node"><title>enrolling</title>
<ellipse fill="none" stroke="black" cx="34" cy="-223" rx="33.8507" ry="18"/>
<text text-anchor="middle" x="34" y="-220.2" font-family="Times,serif" font-size="11.00" fill="gray">enrolling</text>
</g>
<!-- processing -->
<g id="node2" class="node"><title>processing</title>
<ellipse fill="none" stroke="black" cx="175" cy="-276" rx="38.4712" ry="18"/>
<text text-anchor="middle" x="175" y="-273.2" font-family="Times,serif" font-size="11.00" fill="gray">processing</text>
</g>
<!-- enrolling&#45;&gt;processing -->
<g id="edge1" class="edge"><title>enrolling&#45;&gt;processing</title>
<path fill="none" stroke="black" d="M61.8006,-233.219C82.5093,-241.115 111.476,-252.16 134.789,-261.049"/>
<polygon fill="black" stroke="black" points="133.803,-264.419 144.394,-264.711 136.297,-257.878 133.803,-264.419"/>
<text text-anchor="middle" x="102" y="-257" font-family="Times,serif" font-size="10.00">process</text>
</g>
<!-- error -->
<g id="node3" class="node"><title>error</title>
<ellipse fill="none" stroke="black" cx="297" cy="-157" rx="27" ry="18"/>
<text text-anchor="middle" x="297" y="-154.2" font-family="Times,serif" font-size="11.00" fill="red">error</text>
</g>
<!-- enrolling&#45;&gt;error -->
<g id="edge2" class="edge"><title>enrolling&#45;&gt;error</title>
<path fill="none" stroke="black" d="M67.9045,-222.601C111.571,-221.026 190.331,-214.501 252,-189 258.803,-186.187 265.542,-182.121 271.625,-177.825"/>
<polygon fill="black" stroke="black" points="274.138,-180.312 280,-171.487 269.914,-174.731 274.138,-180.312"/>
<text text-anchor="middle" x="175" y="-220" font-family="Times,serif" font-size="10.00" fill="red">error</text>
</g>
<!-- processing&#45;&gt;error -->
<g id="edge11" class="edge"><title>processing&#45;&gt;error</title>
<path fill="none" stroke="black" d="M192.685,-259.454C213.838,-238.478 250.369,-202.251 273.842,-178.973"/>
<polygon fill="black" stroke="black" points="276.333,-181.433 280.969,-171.906 271.404,-176.462 276.333,-181.433"/>
<text text-anchor="middle" x="242" y="-223" font-family="Times,serif" font-size="10.00" fill="red">error</text>
</g>
<!-- finished -->
<g id="node6" class="node"><title>finished</title>
<ellipse fill="none" stroke="black" cx="568" cy="-176" rx="31.0408" ry="18"/>
<text text-anchor="middle" x="568" y="-173.2" font-family="Times,serif" font-size="11.00" fill="gray">finished</text>
</g>
<!-- processing&#45;&gt;finished -->
<g id="edge10" class="edge"><title>processing&#45;&gt;finished</title>
<path fill="none" stroke="black" d="M213.09,-278.731C272.125,-281.22 388.862,-278.362 468,-226 480.338,-217.837 474.066,-206.744 486,-198 497.918,-189.268 513.101,-184.002 527.094,-180.826"/>
<polygon fill="black" stroke="black" points="527.879,-184.238 537.009,-178.863 526.519,-177.371 527.879,-184.238"/>
<text text-anchor="middle" x="358" y="-274" font-family="Times,serif" font-size="10.00">finish</text>
</g>
<!-- error&#45;&gt;error -->
<g id="edge5" class="edge"><title>error&#45;&gt;error</title>
<path fill="none" stroke="black" d="M292.146,-174.782C291.322,-184.315 292.939,-193 297,-193 299.474,-193 301.042,-189.775 301.702,-185.098"/>
<polygon fill="black" stroke="black" points="305.206,-184.832 301.854,-174.782 298.207,-184.729 305.206,-184.832"/>
<text text-anchor="middle" x="297" y="-196" font-family="Times,serif" font-size="10.00" fill="red">abort</text>
</g>
<!-- error&#45;&gt;error -->
<g id="edge6" class="edge"><title>error&#45;&gt;error</title>
<path fill="none" stroke="black" d="M289.026,-174.42C284.481,-191.791 287.139,-211 297,-211 304.935,-211 308.206,-198.562 306.813,-184.652"/>
<polygon fill="black" stroke="black" points="310.188,-183.643 304.974,-174.42 303.298,-184.882 310.188,-183.643"/>
<text text-anchor="middle" x="297" y="-214" font-family="Times,serif" font-size="10.00" fill="red">error</text>
</g>
<!-- starting -->
<g id="node4" class="node"><title>starting</title>
<ellipse fill="none" stroke="black" cx="684" cy="-176" rx="30.1339" ry="18"/>
<text text-anchor="middle" x="684" y="-173.2" font-family="Times,serif" font-size="11.00" fill="gray">starting</text>
</g>
<!-- error&#45;&gt;starting -->
<g id="edge3" class="edge"><title>error&#45;&gt;starting</title>
<path fill="none" stroke="black" d="M312.309,-171.863C329.454,-188.543 359.908,-214.741 392,-226 479.268,-256.617 511.56,-259.045 600,-232 622.02,-225.266 643.476,-210.507 659.055,-197.83"/>
<polygon fill="black" stroke="black" points="661.685,-200.19 667.071,-191.067 657.171,-194.84 661.685,-200.19"/>
<text text-anchor="middle" x="502" y="-253" font-family="Times,serif" font-size="10.00">start</text>
</g>
<!-- reapplying -->
<g id="node5" class="node"><title>reapplying</title>
<ellipse fill="none" stroke="black" cx="430" cy="-170" rx="37.7689" ry="18"/>
<text text-anchor="middle" x="430" y="-167.2" font-family="Times,serif" font-size="11.00" fill="gray">reapplying</text>
</g>
<!-- error&#45;&gt;reapplying -->
<g id="edge4" class="edge"><title>error&#45;&gt;reapplying</title>
<path fill="none" stroke="black" d="M321.518,-164.6C328.078,-166.394 335.256,-168.057 342,-169 354.867,-170.798 368.908,-171.501 381.882,-171.642"/>
<polygon fill="black" stroke="black" points="382.014,-175.142 392.015,-171.644 382.016,-168.142 382.014,-175.142"/>
<text text-anchor="middle" x="358" y="-175" font-family="Times,serif" font-size="10.00">reapply</text>
</g>
<!-- starting&#45;&gt;error -->
<g id="edge17" class="edge"><title>starting&#45;&gt;error</title>
<path fill="none" stroke="black" d="M658.355,-166.246C642.057,-160.232 620.074,-152.939 600,-149 509.248,-131.191 484.23,-136.169 392,-143 372.651,-144.433 351.243,-147.504 333.751,-150.405"/>
<polygon fill="black" stroke="black" points="332.686,-147.036 323.42,-152.173 333.867,-153.936 332.686,-147.036"/>
<text text-anchor="middle" x="502" y="-141" font-family="Times,serif" font-size="10.00" fill="red">timeout</text>
</g>
<!-- starting&#45;&gt;error -->
<g id="edge18" class="edge"><title>starting&#45;&gt;error</title>
<path fill="none" stroke="black" d="M662.327,-163.45C646.013,-154.197 622.354,-142.186 600,-136 510.901,-111.341 483.632,-121.737 392,-134 369.759,-136.976 363.775,-135.581 342,-141 338.118,-141.966 334.102,-143.152 330.147,-144.438"/>
<polygon fill="black" stroke="black" points="328.852,-141.183 320.554,-147.771 331.149,-147.795 328.852,-141.183"/>
<text text-anchor="middle" x="502" y="-125" font-family="Times,serif" font-size="10.00" fill="red">error</text>
</g>
<!-- starting&#45;&gt;starting -->
<g id="edge15" class="edge"><title>starting&#45;&gt;starting</title>
<path fill="none" stroke="black" d="M674.077,-193.037C672.052,-202.858 675.359,-212 684,-212 689.4,-212 692.718,-208.429 693.952,-203.353"/>
<polygon fill="black" stroke="black" points="697.451,-203.028 693.923,-193.037 690.451,-203.047 697.451,-203.028"/>
<text text-anchor="middle" x="684" y="-215" font-family="Times,serif" font-size="10.00">start</text>
</g>
<!-- waiting -->
<g id="node7" class="node"><title>waiting</title>
<ellipse fill="none" stroke="black" cx="800" cy="-176" rx="30.1339" ry="18"/>
<text text-anchor="middle" x="800" y="-173.2" font-family="Times,serif" font-size="11.00" fill="gray">waiting</text>
</g>
<!-- starting&#45;&gt;waiting -->
<g id="edge16" class="edge"><title>starting&#45;&gt;waiting</title>
<path fill="none" stroke="black" d="M709.356,-185.966C722.001,-189.989 737.749,-193.219 752,-191 755.98,-190.38 760.085,-189.482 764.133,-188.428"/>
<polygon fill="black" stroke="black" points="765.356,-191.718 773.978,-185.56 763.398,-184.997 765.356,-191.718"/>
<text text-anchor="middle" x="742" y="-195" font-family="Times,serif" font-size="10.00">wait</text>
</g>
<!-- reapplying&#45;&gt;error -->
<g id="edge14" class="edge"><title>reapplying&#45;&gt;error</title>
<path fill="none" stroke="black" d="M397.557,-160.564C389.918,-158.671 381.724,-156.968 374,-156 359.888,-154.232 356.221,-155.838 342,-156 339.46,-156.029 336.837,-156.067 334.196,-156.112"/>
<polygon fill="black" stroke="black" points="333.986,-152.615 324.057,-156.31 334.123,-159.614 333.986,-152.615"/>
<text text-anchor="middle" x="358" y="-159" font-family="Times,serif" font-size="10.00" fill="red">error</text>
</g>
<!-- reapplying&#45;&gt;reapplying -->
<g id="edge12" class="edge"><title>reapplying&#45;&gt;reapplying</title>
<path fill="none" stroke="black" d="M417.242,-187.037C414.638,-196.858 418.891,-206 430,-206 436.943,-206 441.208,-202.429 442.795,-197.353"/>
<polygon fill="black" stroke="black" points="446.294,-197.025 442.758,-187.037 439.294,-197.05 446.294,-197.025"/>
<text text-anchor="middle" x="430" y="-209" font-family="Times,serif" font-size="10.00">reapply</text>
</g>
<!-- reapplying&#45;&gt;finished -->
<g id="edge13" class="edge"><title>reapplying&#45;&gt;finished</title>
<path fill="none" stroke="black" d="M463.32,-161.414C479.743,-158.191 499.985,-155.964 518,-159 522.798,-159.809 527.753,-161.033 532.585,-162.462"/>
<polygon fill="black" stroke="black" points="531.65,-165.839 542.243,-165.614 533.822,-159.184 531.65,-165.839"/>
<text text-anchor="middle" x="502" y="-162" font-family="Times,serif" font-size="10.00">finish</text>
</g>
<!-- finished&#45;&gt;starting -->
<g id="edge7" class="edge"><title>finished&#45;&gt;starting</title>
<path fill="none" stroke="black" d="M599.55,-176C613.03,-176 629.046,-176 643.426,-176"/>
<polygon fill="black" stroke="black" points="643.547,-179.5 653.547,-176 643.547,-172.5 643.547,-179.5"/>
<text text-anchor="middle" x="627" y="-179" font-family="Times,serif" font-size="10.00">start</text>
</g>
<!-- finished&#45;&gt;reapplying -->
<g id="edge8" class="edge"><title>finished&#45;&gt;reapplying</title>
<path fill="none" stroke="black" d="M536.608,-175C521.407,-174.468 502.728,-173.766 486,-173 483.316,-172.877 480.559,-172.745 477.777,-172.607"/>
<polygon fill="black" stroke="black" points="477.847,-169.106 467.681,-172.09 477.488,-176.097 477.847,-169.106"/>
<text text-anchor="middle" x="502" y="-178" font-family="Times,serif" font-size="10.00">reapply</text>
</g>
<!-- finished&#45;&gt;finished -->
<g id="edge9" class="edge"><title>finished&#45;&gt;finished</title>
<path fill="none" stroke="black" d="M557.722,-193.037C555.625,-202.858 559.051,-212 568,-212 573.593,-212 577.029,-208.429 578.307,-203.353"/>
<polygon fill="black" stroke="black" points="581.806,-203.027 578.278,-193.037 574.806,-203.047 581.806,-203.027"/>
<text text-anchor="middle" x="568" y="-215" font-family="Times,serif" font-size="10.00">finish</text>
</g>
<!-- waiting&#45;&gt;processing -->
<g id="edge19" class="edge"><title>waiting&#45;&gt;processing</title>
<path fill="none" stroke="black" d="M794.215,-193.78C782.599,-232.499 749.044,-321 685,-321 296,-321 296,-321 296,-321 264.572,-321 231.293,-307.3 207.773,-295.019"/>
<polygon fill="black" stroke="black" points="209.41,-291.925 198.95,-290.238 206.075,-298.08 209.41,-291.925"/>
<text text-anchor="middle" x="502" y="-324" font-family="Times,serif" font-size="10.00">process</text>
</g>
<!-- waiting&#45;&gt;error -->
<g id="edge21" class="edge"><title>waiting&#45;&gt;error</title>
<path fill="none" stroke="black" d="M792.906,-158.334C779.466,-123.004 743.73,-47 685,-47 429,-47 429,-47 429,-47 376.609,-47 334.216,-99.2371 312.92,-131.716"/>
<polygon fill="black" stroke="black" points="309.881,-129.974 307.482,-140.293 315.793,-133.722 309.881,-129.974"/>
<text text-anchor="middle" x="568" y="-50" font-family="Times,serif" font-size="10.00" fill="red">abort</text>
</g>
<!-- waiting&#45;&gt;error -->
<g id="edge22" class="edge"><title>waiting&#45;&gt;error</title>
<path fill="none" stroke="black" d="M796.115,-157.828C787.838,-112.86 759.631,-0 685,-0 429,-0 429,-0 429,-0 362.169,-0 322.787,-84.9071 306.624,-129.84"/>
<polygon fill="black" stroke="black" points="303.315,-128.701 303.354,-139.295 309.931,-130.989 303.315,-128.701"/>
<text text-anchor="middle" x="568" y="-3" font-family="Times,serif" font-size="10.00" fill="red">timeout</text>
</g>
<!-- waiting&#45;&gt;starting -->
<g id="edge20" class="edge"><title>waiting&#45;&gt;starting</title>
<path fill="none" stroke="black" d="M769.742,-176C756.059,-176 739.556,-176 724.763,-176"/>
<polygon fill="black" stroke="black" points="724.358,-172.5 714.358,-176 724.358,-179.5 724.358,-172.5"/>
<text text-anchor="middle" x="742" y="-179" font-family="Times,serif" font-size="10.00">start</text>
</g>
</g>
</svg>
