<?xml version="1.0" encoding="UTF-8" standalone="no"?>
<!DOCTYPE svg PUBLIC "-//W3C//DTD SVG 1.1//EN"
 "http://www.w3.org/Graphics/SVG/1.1/DTD/svg11.dtd">
<!-- Generated by graphviz version 2.40.1 (20161225.0304)
 -->
<!-- Title: Ironic Inspector states Pages: 1 -->
<svg width="842pt" height="383pt"
 viewBox="0.00 0.00 841.68 383.00" xmlns="http://www.w3.org/2000/svg" xmlns:xlink="http://www.w3.org/1999/xlink">
<g id="graph0" class="graph" transform="scale(1 1) rotate(0) translate(4 379)">
<title>Ironic Inspector states</title>
<polygon fill="#ffffff" stroke="transparent" points="-4,4 -4,-379 837.6827,-379 837.6827,4 -4,4"/>
<!-- enrolling -->
<g id="node1" class="node">
<title>enrolling</title>
<ellipse fill="none" stroke="#000000" cx="32.7967" cy="-223" rx="32.5946" ry="18"/>
<text text-anchor="middle" x="32.7967" y="-219.7" font-family="Times,serif" font-size="11.00" fill="#c0c0c0">enrolling</text>
</g>
<!-- error -->
<g id="node2" class="node">
<title>error</title>
<ellipse fill="none" stroke="#000000" cx="159.1451" cy="-190" rx="27" ry="18"/>
<text text-anchor="middle" x="159.1451" y="-186.7" font-family="Times,serif" font-size="11.00" fill="#ff0000">error</text>
</g>
<!-- enrolling&#45;&gt;error -->
<g id="edge1" class="edge">
<title>enrolling&#45;&gt;error</title>
<path fill="none" stroke="#000000" d="M62.4198,-215.263C80.9292,-210.4286 104.8518,-204.1805 124.2748,-199.1075"/>
<polygon fill="#000000" stroke="#000000" points="125.1781,-202.4891 133.969,-196.5756 123.4091,-195.7163 125.1781,-202.4891"/>
<text text-anchor="middle" x="98.8693" y="-211" font-family="Times,serif" font-size="10.00" fill="#ff0000">error</text>
</g>
<!-- enrolling&#45;&gt;error -->
<g id="edge3" class="edge">
<title>enrolling&#45;&gt;error</title>
<path fill="none" stroke="#000000" d="M50.793,-207.6437C59.9733,-200.8122 71.6953,-193.5255 83.5934,-190 95.8748,-186.3609 109.7805,-185.4983 122.284,-185.8233"/>
<polygon fill="#000000" stroke="#000000" points="122.2248,-189.3248 132.3907,-186.3408 122.5828,-182.3339 122.2248,-189.3248"/>
<text text-anchor="middle" x="98.8693" y="-192" font-family="Times,serif" font-size="10.00" fill="#ff0000">timeout</text>
</g>
<!-- processing -->
<g id="node3" class="node">
<title>processing</title>
<ellipse fill="none" stroke="#000000" cx="796.5702" cy="-294" rx="37.2253" ry="18"/>
<text text-anchor="middle" x="796.5702" y="-290.7" font-family="Times,serif" font-size="11.00" fill="#c0c0c0">processing</text>
</g>
<!-- enrolling&#45;&gt;processing -->
<g id="edge2" class="edge">
<title>enrolling&#45;&gt;processing</title>
<path fill="none" stroke="#000000" d="M38.9232,-240.6973C53.3543,-278.7629 93.3124,-365 159.1451,-365 159.1451,-365 159.1451,-365 664.6261,-365 705.9926,-365 746.88,-337.6031 771.9214,-316.8465"/>
<polygon fill="#000000" stroke="#000000" points="774.4666,-319.2748 779.784,-310.111 769.9125,-313.9587 774.4666,-319.2748"/>
<text text-anchor="middle" x="423.3931" y="-367" font-family="Times,serif" font-size="10.00" fill="#000000">process</text>
</g>
<!-- error&#45;&gt;error -->
<g id="edge4" class="edge">
<title>error&#45;&gt;error</title>
<path fill="none" stroke="#000000" d="M153.7522,-207.7817C152.8358,-217.3149 154.6334,-226 159.1451,-226 161.8945,-226 163.636,-222.7749 164.3696,-218.0981"/>
<polygon fill="#000000" stroke="#000000" points="167.8742,-217.8376 164.5381,-207.7817 160.8752,-217.7232 167.8742,-217.8376"/>
<text text-anchor="middle" x="159.1451" y="-228" font-family="Times,serif" font-size="10.00" fill="#ff0000">abort</text>
</g>
<!-- error&#45;&gt;error -->
<g id="edge5" class="edge">
<title>error&#45;&gt;error</title>
<path fill="none" stroke="#000000" d="M150.3671,-207.1418C145.2035,-224.585 148.1295,-244 159.1451,-244 168.0953,-244 171.7051,-231.183 169.9745,-217.0206"/>
<polygon fill="#000000" stroke="#000000" points="173.3833,-216.2213 167.9232,-207.1418 166.5295,-217.6445 173.3833,-216.2213"/>
<text text-anchor="middle" x="159.1451" y="-246" font-family="Times,serif" font-size="10.00" fill="#ff0000">error</text>
</g>
<!-- reapplying -->
<g id="node4" class="node">
<title>reapplying</title>
<ellipse fill="none" stroke="#000000" cx="289.8062" cy="-207" rx="37.219" ry="18"/>
<text text-anchor="middle" x="289.8062" y="-203.7" font-family="Times,serif" font-size="11.00" fill="#c0c0c0">reapplying</text>
</g>
<!-- error&#45;&gt;reapplying -->
<g id="edge6" class="edge">
<title>error&#45;&gt;reapplying</title>
<path fill="none" stroke="#000000" d="M170.8266,-206.6885C178.8931,-216.6767 190.5869,-228.473 204.1451,-234 222.0093,-241.2823 242.6135,-235.2198 259.137,-227.0102"/>
<polygon fill="#000000" stroke="#000000" points="261.2238,-229.8599 268.3427,-222.0131 257.8843,-223.7078 261.2238,-229.8599"/>
<text text-anchor="middle" x="219.421" y="-239" font-family="Times,serif" font-size="10.00" fill="#000000">reapply</text>
</g>
<!-- starting -->
<g id="node5" class="node">
<title>starting</title>
<ellipse fill="none" stroke="#000000" cx="548.712" cy="-106" rx="28.6835" ry="18"/>
<text text-anchor="middle" x="548.712" y="-102.7" font-family="Times,serif" font-size="11.00" fill="#c0c0c0">starting</text>
</g>
<!-- error&#45;&gt;starting -->
<g id="edge7" class="edge">
<title>error&#45;&gt;starting</title>
<path fill="none" stroke="#000000" d="M185.7778,-186.305C191.8127,-185.5078 198.1957,-184.6962 204.1451,-184 220.6565,-182.0679 486.8945,-161.2162 501.8707,-154 512.9535,-148.6598 522.867,-139.5514 530.6885,-130.6948"/>
<polygon fill="#000000" stroke="#000000" points="533.5841,-132.6853 537.257,-122.7474 528.1884,-128.2258 533.5841,-132.6853"/>
<text text-anchor="middle" x="360.1914" y="-174" font-family="Times,serif" font-size="10.00" fill="#000000">start</text>
</g>
<!-- processing&#45;&gt;error -->
<g id="edge11" class="edge">
<title>processing&#45;&gt;error</title>
<path fill="none" stroke="#000000" d="M764.8941,-303.4514C738.3628,-310.531 699.3647,-319 664.6261,-319 289.8062,-319 289.8062,-319 289.8062,-319 250.2686,-319 233.8818,-321.0567 204.1451,-295 181.4063,-275.0751 169.7917,-241.6479 164.1159,-217.864"/>
<polygon fill="#000000" stroke="#000000" points="167.5185,-217.0393 161.9695,-208.0138 160.6789,-218.5297 167.5185,-217.0393"/>
<text text-anchor="middle" x="486.5948" y="-321" font-family="Times,serif" font-size="10.00" fill="#ff0000">error</text>
</g>
<!-- processing&#45;&gt;error -->
<g id="edge13" class="edge">
<title>processing&#45;&gt;error</title>
<path fill="none" stroke="#000000" d="M760.2154,-290.0289C722.0298,-286.2059 660.2037,-281 606.6691,-281 289.8062,-281 289.8062,-281 289.8062,-281 249.4674,-281 236.5959,-274.9619 204.1451,-251 191.6594,-241.7805 181.1271,-228.1091 173.3984,-216.0446"/>
<polygon fill="#000000" stroke="#000000" points="176.2299,-213.9642 168.0487,-207.2323 170.2462,-217.5968 176.2299,-213.9642"/>
<text text-anchor="middle" x="486.5948" y="-283" font-family="Times,serif" font-size="10.00" fill="#ff0000">timeout</text>
</g>
<!-- finished -->
<g id="node6" class="node">
<title>finished</title>
<ellipse fill="none" stroke="#000000" cx="423.3931" cy="-207" rx="29.8518" ry="18"/>
<text text-anchor="middle" x="423.3931" y="-203.7" font-family="Times,serif" font-size="11.00" fill="#c0c0c0">finished</text>
</g>
<!-- processing&#45;&gt;finished -->
<g id="edge12" class="edge">
<title>processing&#45;&gt;finished</title>
<path fill="none" stroke="#000000" d="M762.8931,-286.1487C693.4478,-269.9587 534.7324,-232.9569 461.5916,-215.9053"/>
<polygon fill="#000000" stroke="#000000" points="461.9756,-212.4011 451.4421,-213.5391 460.3862,-219.2183 461.9756,-212.4011"/>
<text text-anchor="middle" x="606.6691" y="-253" font-family="Times,serif" font-size="10.00" fill="#000000">finish</text>
</g>
<!-- reapplying&#45;&gt;error -->
<g id="edge14" class="edge">
<title>reapplying&#45;&gt;error</title>
<path fill="none" stroke="#000000" d="M252.5474,-205.7684C237.4566,-204.9118 219.906,-203.46 204.1451,-201 200.8871,-200.4915 197.5185,-199.8637 194.1582,-199.1679"/>
<polygon fill="#000000" stroke="#000000" points="194.7462,-195.7127 184.2212,-196.9277 193.2066,-202.5413 194.7462,-195.7127"/>
<text text-anchor="middle" x="219.421" y="-206" font-family="Times,serif" font-size="10.00" fill="#ff0000">error</text>
</g>
<!-- reapplying&#45;&gt;error -->
<g id="edge17" class="edge">
<title>reapplying&#45;&gt;error</title>
<path fill="none" stroke="#000000" d="M260.1535,-196.0759C252.015,-193.5688 243.1124,-191.2685 234.6969,-190 222.3581,-188.1401 208.7564,-187.6625 196.5344,-187.7968"/>
<polygon fill="#000000" stroke="#000000" points="196.1254,-184.3057 186.2154,-188.0528 196.2992,-191.3036 196.1254,-184.3057"/>
<text text-anchor="middle" x="219.421" y="-192" font-family="Times,serif" font-size="10.00" fill="#ff0000">timeout</text>
</g>
<!-- reapplying&#45;&gt;reapplying -->
<g id="edge16" class="edge">
<title>reapplying&#45;&gt;reapplying</title>
<path fill="none" stroke="#000000" d="M277.4022,-224.0373C274.8708,-233.8579 279.0054,-243 289.8062,-243 296.5567,-243 300.7033,-239.4289 302.2458,-234.3529"/>
<polygon fill="#000000" stroke="#000000" points="305.7448,-234.0251 302.2103,-224.0373 298.7449,-234.0494 305.7448,-234.0251"/>
<text text-anchor="middle" x="289.8062" y="-245" font-family="Times,serif" font-size="10.00" fill="#000000">reapply</text>
</g>
<!-- reapplying&#45;&gt;finished -->
<g id="edge15" class="edge">
<title>reapplying&#45;&gt;finished</title>
<path fill="none" stroke="#000000" d="M325.6382,-201.6062C340.9792,-199.936 359.097,-198.8108 375.4673,-200 378.3764,-200.2113 381.3771,-200.4939 384.3911,-200.8245"/>
<polygon fill="#000000" stroke="#000000" points="384.2187,-204.3302 394.5761,-202.1002 385.0886,-197.3845 384.2187,-204.3302"/>
<text text-anchor="middle" x="360.1914" y="-202" font-family="Times,serif" font-size="10.00" fill="#000000">finish</text>
</g>
<!-- starting&#45;&gt;error -->
<g id="edge18" class="edge">
<title>starting&#45;&gt;error</title>
<path fill="none" stroke="#000000" d="M520.9066,-111.2751C462.18,-122.5338 321.2756,-150.1669 204.1451,-178 200.9199,-178.7664 197.5735,-179.5951 194.2274,-180.4465"/>
<polygon fill="#000000" stroke="#000000" points="193.1069,-177.1215 184.312,-183.0292 194.8713,-183.8955 193.1069,-177.1215"/>
<text text-anchor="middle" x="360.1914" y="-149" font-family="Times,serif" font-size="10.00" fill="#ff0000">error</text>
</g>
<!-- starting&#45;&gt;error -->
<g id="edge21" class="edge">
<title>starting&#45;&gt;error</title>
<path fill="none" stroke="#000000" d="M519.8505,-106.9285C466.0809,-109.3456 347.44,-117.9303 252.6969,-148 231.0771,-154.8617 207.8053,-165.2964 189.8809,-174.048"/>
<polygon fill="#000000" stroke="#000000" points="187.9134,-171.1174 180.5174,-178.7035 191.0299,-177.3854 187.9134,-171.1174"/>
<text text-anchor="middle" x="360.1914" y="-128" font-family="Times,serif" font-size="10.00" fill="#ff0000">timeout</text>
</g>
<!-- starting&#45;&gt;starting -->
<g id="edge19" class="edge">
<title>starting&#45;&gt;starting</title>
<path fill="none" stroke="#000000" d="M538.7888,-123.0373C536.7637,-132.8579 540.0714,-142 548.712,-142 554.1124,-142 557.4296,-138.4289 558.6637,-133.3529"/>
<polygon fill="#000000" stroke="#000000" points="562.1629,-133.0276 558.6352,-123.0373 555.163,-133.047 562.1629,-133.0276"/>
<text text-anchor="middle" x="548.712" y="-144" font-family="Times,serif" font-size="10.00" fill="#000000">start</text>
</g>
<!-- waiting -->
<g id="node7" class="node">
<title>waiting</title>
<ellipse fill="none" stroke="#000000" cx="664.6261" cy="-58" rx="28.6835" ry="18"/>
<text text-anchor="middle" x="664.6261" y="-54.7" font-family="Times,serif" font-size="11.00" fill="#c0c0c0">waiting</text>
</g>
<!-- starting&#45;&gt;waiting -->
<g id="edge20" class="edge">
<title>starting&#45;&gt;waiting</title>
<path fill="none" stroke="#000000" d="M573.0114,-95.9376C589.8579,-88.9615 612.5106,-79.581 631.0755,-71.8933"/>
<polygon fill="#000000" stroke="#000000" points="632.4586,-75.1088 640.3587,-68.0491 629.7804,-68.6414 632.4586,-75.1088"/>
<text text-anchor="middle" x="606.6691" y="-89" font-family="Times,serif" font-size="10.00" fill="#000000">wait</text>
</g>
<!-- finished&#45;&gt;reapplying -->
<g id="edge9" class="edge">
<title>finished&#45;&gt;reapplying</title>
<path fill="none" stroke="#000000" d="M393.7612,-209.8611C387.7142,-210.3357 381.3902,-210.7533 375.4673,-211 362.9165,-211.5229 349.3336,-211.2665 336.7624,-210.6879"/>
<polygon fill="#000000" stroke="#000000" points="336.6587,-207.1773 326.4853,-210.136 336.2832,-214.1673 336.6587,-207.1773"/>
<text text-anchor="middle" x="360.1914" y="-213" font-family="Times,serif" font-size="10.00" fill="#000000">reapply</text>
</g>
<!-- finished&#45;&gt;starting -->
<g id="edge10" class="edge">
<title>finished&#45;&gt;starting</title>
<path fill="none" stroke="#000000" d="M441.3483,-192.5292C462.6588,-175.3541 498.3641,-146.5776 522.6991,-126.965"/>
<polygon fill="#000000" stroke="#000000" points="525.2004,-129.4443 530.7902,-120.444 520.8078,-123.994 525.2004,-129.4443"/>
<text text-anchor="middle" x="486.5948" y="-168" font-family="Times,serif" font-size="10.00" fill="#000000">start</text>
</g>
<!-- finished&#45;&gt;finished -->
<g id="edge8" class="edge">
<title>finished&#45;&gt;finished</title>
<path fill="none" stroke="#000000" d="M412.4067,-224.0373C410.1646,-233.8579 413.8267,-243 423.3931,-243 429.3721,-243 433.0448,-239.4289 434.4111,-234.3529"/>
<polygon fill="#000000" stroke="#000000" points="437.9102,-234.0265 434.3795,-224.0373 430.9102,-234.048 437.9102,-234.0265"/>
<text text-anchor="middle" x="423.3931" y="-245" font-family="Times,serif" font-size="10.00" fill="#000000">finish</text>
</g>
<!-- waiting&#45;&gt;error -->
<g id="edge22" class="edge">
<title>waiting&#45;&gt;error</title>
<path fill="none" stroke="#000000" d="M635.8244,-59.3578C567.489,-63.3 390.9294,-77.7349 252.6969,-126 229.7823,-134.0008 224.248,-137.3998 204.1451,-151 196.6367,-156.0797 188.9922,-162.2552 182.186,-168.1799"/>
<polygon fill="#000000" stroke="#000000" points="179.7533,-165.6601 174.6393,-174.939 184.4235,-170.8745 179.7533,-165.6601"/>
<text text-anchor="middle" x="423.3931" y="-91" font-family="Times,serif" font-size="10.00" fill="#ff0000">abort</text>
</g>
<!-- waiting&#45;&gt;error -->
<g id="edge25" class="edge">
<title>waiting&#45;&gt;error</title>
<path fill="none" stroke="#000000" d="M647.5018,-43.0636C625.9836,-25.8786 587.1915,0 548.712,0 289.8062,0 289.8062,0 289.8062,0 212.0914,0 177.1061,-109.2549 164.7343,-162.0677"/>
<polygon fill="#000000" stroke="#000000" points="161.252,-161.6033 162.4928,-172.1253 168.0844,-163.1262 161.252,-161.6033"/>
<text text-anchor="middle" x="423.3931" y="-2" font-family="Times,serif" font-size="10.00" fill="#ff0000">timeout</text>
</g>
<!-- waiting&#45;&gt;processing -->
<g id="edge23" class="edge">
<title>waiting&#45;&gt;processing</title>
<path fill="none" stroke="#000000" d="M674.3283,-75.3536C697.2037,-116.2695 754.6279,-218.9806 781.8345,-267.6433"/>
<polygon fill="#000000" stroke="#000000" points="778.9188,-269.6004 786.8538,-276.6209 785.0287,-266.1844 778.9188,-269.6004"/>
<text text-anchor="middle" x="726.4625" y="-192" font-family="Times,serif" font-size="10.00" fill="#000000">process</text>
</g>
<!-- waiting&#45;&gt;starting -->
<g id="edge24" class="edge">
<title>waiting&#45;&gt;starting</title>
<path fill="none" stroke="#000000" d="M635.7298,-56.4637C622.955,-56.7905 608.0343,-58.5932 595.5533,-64 585.985,-68.1451 577.0389,-75.0396 569.5816,-82.0564"/>
<polygon fill="#000000" stroke="#000000" points="566.6659,-80.0265 562.1149,-89.5942 571.639,-84.9528 566.6659,-80.0265"/>
<text text-anchor="middle" x="606.6691" y="-66" font-family="Times,serif" font-size="10.00" fill="#000000">start</text>
</g>
</g>
</svg>
